HIERARCHY
ROOT Pelvis
{
	OFFSET 0.000000 0.000000 0.000000
	CHANNELS 6 Xposition Yposition Zposition Xrotation Yrotation Zrotation
	JOINT LeftUpLeg_virtual
	{
		OFFSET 0.000000 0.000000 0.000000
		CHANNELS 3 Xrotation Yrotation Zrotation
		JOINT LeftUpLeg
		{
			OFFSET 18.735201 -5.666702 -4.541200
			CHANNELS 3 Xrotation Yrotation Zrotation
			JOINT LeftLeg
			{
				OFFSET -0.021200 -31.938179 0.493100
				CHANNELS 3 Xrotation Yrotation Zrotation
				JOINT LeftFoot
				{
					OFFSET 0.021200 -31.938179 -4.336299
					CHANNELS 3 Xrotation Yrotation Zrotation
					JOINT LeftToeBase
					{
						OFFSET 0.943001 -26.722000 15.023500
						CHANNELS 3 Xrotation Yrotation Zrotation
						End Site
						{
							OFFSET 0 0 0
						}
					}
				}
			}
		}
	}
	JOINT RightUpLeg_virtual
	{
		OFFSET 0.000000 0.000000 0.000000
		CHANNELS 3 Xrotation Yrotation Zrotation
		JOINT RightUpLeg
		{
			OFFSET -18.735201 -5.666702 -4.541200
			CHANNELS 3 Xrotation Yrotation Zrotation
			JOINT RightLeg
			{
				OFFSET 0.018946 -31.938133 0.493100
				CHANNELS 3 Xrotation Yrotation Zrotation
				JOINT RightFoot
				{
					OFFSET -0.018946 -31.938126 -4.336299
					CHANNELS 3 Xrotation Yrotation Zrotation
					JOINT RightToeBase
					{
						OFFSET -0.943001 -26.722004 15.023500
						CHANNELS 3 Xrotation Yrotation Zrotation
						End Site
						{
							OFFSET 0 0 0
						}
					}
				}
			}
		}
	}
	JOINT Hips_virtual
	{
		OFFSET 0.000000 0.000000 0.000000
		CHANNELS 3 Xrotation Yrotation Zrotation
		JOINT Hips
		{
			OFFSET -0.000000 -0.000000 -0.000000
			CHANNELS 3 Xrotation Yrotation Zrotation
			JOINT Spine
			{
				OFFSET 0.000000 10.199997 -0.299500
				CHANNELS 3 Xrotation Yrotation Zrotation
				JOINT Spine1
				{
					OFFSET 0.000000 11.900002 -1.516600
					CHANNELS 3 Xrotation Yrotation Zrotation
					JOINT Spine2
					{
						OFFSET 0.000000 13.600006 -2.842500
						CHANNELS 3 Xrotation Yrotation Zrotation
						JOINT Neck_virtual
						{
							OFFSET 0.000000 0.000000 0.000000
							CHANNELS 3 Xrotation Yrotation Zrotation
							JOINT Neck
							{
								OFFSET 0.000000 9.624100 -2.890100
								CHANNELS 3 Xrotation Yrotation Zrotation
								JOINT Head
								{
									OFFSET 0.000000 14.068802 -1.351900
									CHANNELS 3 Xrotation Yrotation Zrotation
									End Site
									{
										OFFSET 0 0 0
									}
								}
							}
						}
						JOINT LeftShoulder_virtual
						{
							OFFSET 0.000000 0.000000 0.000000
							CHANNELS 3 Xrotation Yrotation Zrotation
							JOINT LeftShoulder
							{
								OFFSET 15.263000 10.923401 -0.547700
								CHANNELS 3 Xrotation Yrotation Zrotation
								JOINT LeftArm
								{
									OFFSET 25.438599 -2.830597 -13.032500
									CHANNELS 3 Xrotation Yrotation Zrotation
									JOINT LeftForeArm
									{
										OFFSET 29.960503 0.000000 0.000000
										CHANNELS 3 Xrotation Yrotation Zrotation
										JOINT LeftHand
										{
											OFFSET 27.849251 0.000000 0.000000
											CHANNELS 3 Xrotation Yrotation Zrotation
											End Site
											{
												OFFSET 0 0 0
											}
										}
									}
								}
							}
						}
						JOINT RightShoulder_virtual
						{
							OFFSET 0.000000 0.000000 0.000000
							CHANNELS 3 Xrotation Yrotation Zrotation
							JOINT RightShoulder
							{
								OFFSET -15.263000 10.923401 -0.547700
								CHANNELS 3 Xrotation Yrotation Zrotation
								JOINT RightArm
								{
									OFFSET -25.438599 -2.830597 -13.032500
									CHANNELS 3 Xrotation Yrotation Zrotation
									JOINT RightForeArm
									{
										OFFSET -29.960503 0.000000 0.000000
										CHANNELS 3 Xrotation Yrotation Zrotation
										JOINT RightHand
										{
											OFFSET -27.849251 0.000000 0.000000
											CHANNELS 3 Xrotation Yrotation Zrotation
											End Site
											{
												OFFSET 0 0 0
											}
										}
									}
								}
							}
						}
					}
				}
			}
		}
	}
}
MOTION
Frames: 4
Frame Time: 0.03333333
0.054377 94.470642 6.601276 0.000000 0.000000 0.000000 -1.678008 -23.954047 -1.500468 -11.276055 8.714553 2.607890 25.429450 6.129185 -2.292795 -8.590723 19.791160 -6.954584 0.000000 0.000000 0.000000 -1.951589 -23.119301 -1.452365 -17.516037 -1.581568 -15.041349 24.353944 -2.126212 3.805912 -5.909913 -1.188129 3.686461 0.000000 0.000000 0.000000 -1.702947 -23.218916 -1.239674 -0.818894 -0.112314 -0.121629 5.581996 1.780726 -1.173499 3.075966 -0.402244 0.428573 0.000000 0.000000 0.000000 1.855770 1.189352 -0.355933 1.205454 -0.478999 0.863741 0.000000 0.000000 0.000000 2.958899 0.815525 -0.437111 -3.598147 -11.564513 -8.799871 1.776937 -13.969732 -50.546241 -6.282877 -21.671960 -8.802371 0.000000 0.000000 0.000000 -0.077549 1.482407 -0.223650 7.862313 4.002529 12.529209 3.801650 0.613649 56.090972 0.219716 26.326681 19.064463 0.000000 0.000000 0.000000 
0.486384 94.493439 6.812801 0.000000 0.000000 0.000000 -1.602519 -24.824737 -1.616747 -11.265746 9.062518 2.499218 25.449616 6.158739 -2.428490 -8.716014 20.418724 -6.794398 0.000000 0.000000 0.000000 -1.860582 -23.999678 -1.576080 -17.515595 -1.543799 -14.881860 24.070794 -2.121228 3.799437 -6.200554 -1.527275 3.663244 0.000000 0.000000 0.000000 -1.630769 -24.117868 -1.386037 -0.816700 -0.112651 -0.126551 5.468980 1.319185 -1.106396 3.052277 -0.610087 0.438876 0.000000 0.000000 0.000000 1.685870 1.049682 -0.338196 1.114329 -0.493644 0.837655 0.000000 0.000000 0.000000 2.981903 0.650965 -0.430354 -3.782227 -11.821468 -8.879612 1.681935 -14.654323 -50.841920 -6.147122 -22.735304 -8.625725 0.000000 0.000000 0.000000 -0.194577 1.344596 -0.220855 8.134529 3.342264 12.847121 3.459384 1.671461 56.544407 0.493246 26.918824 19.012118 0.000000 0.000000 0.000000 
0.868833 94.508423 7.040262 0.000000 0.000000 0.000000 -1.472956 -25.653779 -1.727367 -11.305342 9.389401 2.483819 25.456100 6.156029 -2.569405 -8.823160 21.011714 -6.725494 0.000000 0.000000 0.000000 -1.726464 -24.828443 -1.690067 -17.420940 -1.502901 -14.628996 23.619966 -2.178253 3.743146 -6.374757 -1.867772 3.580980 0.000000 0.000000 0.000000 -1.505631 -24.958169 -1.516485 -0.815252 -0.110563 -0.127394 5.355002 0.833399 -1.104460 3.031963 -0.811285 0.441495 0.000000 0.000000 0.000000 1.540468 0.911506 -0.327639 1.014680 -0.522207 0.823103 0.000000 0.000000 0.000000 2.998139 0.488802 -0.431508 -3.982683 -12.136858 -8.917810 1.796021 -15.479664 -51.022995 -5.989553 -24.145832 -8.509714 0.000000 0.000000 0.000000 -0.280610 1.209110 -0.221690 8.387943 2.668512 13.287943 3.084864 2.706243 56.965550 0.794082 27.630550 18.842229 0.000000 0.000000 0.000000 
1.195477 94.520630 7.279575 0.000000 0.000000 0.000000 -1.271833 -26.435474 -1.816429 -11.393754 9.670912 2.561261 25.429494 6.114613 -2.705309 -8.908998 21.537048 -6.762133 0.000000 0.000000 0.000000 -1.526587 -25.588334 -1.776398 -17.203834 -1.438149 -14.306807 22.960601 -2.315611 3.626401 -6.551795 -2.243613 3.412863 0.000000 0.000000 0.000000 -1.311287 -25.721523 -1.616126 -0.814853 -0.105499 -0.124846 5.234765 0.335366 -1.207178 3.011169 -1.006036 0.430502 0.000000 0.000000 0.000000 1.413843 0.772690 -0.331589 0.902998 -0.566314 0.826690 0.000000 0.000000 0.000000 2.997015 0.327264 -0.449784 -4.192073 -12.518255 -8.892076 2.102367 -16.409379 -51.105374 -5.824446 -26.015308 -8.467014 0.000000 0.000000 0.000000 -0.329043 1.075513 -0.231309 8.622390 1.973311 13.819445 2.734695 3.669134 57.363726 1.128916 28.444688 18.546750 0.000000 0.000000 0.000000 
